<svg width="32" height="32" viewBox="0 0 32 32" fill="none" xmlns="http://www.w3.org/2000/svg">
<path d="M10.4539 28.5022C9.91981 28.1613 9.44649 27.7401 9.0521 27.2548C8.61826 26.7538 8.2163 26.2282 7.8484 25.6809C6.98506 24.4674 6.30801 23.1412 5.83801 21.7429C5.27341 20.1187 5 18.5618 5 17.0391C5 15.3385 5.38346 13.854 6.13344 12.6066C6.68939 11.6316 7.50678 10.8168 8.50104 10.2465C9.46459 9.67235 10.5717 9.35812 11.7058 9.33697C12.1028 9.33697 12.5303 9.39219 12.984 9.49777C13.3099 9.58629 13.7069 9.72597 14.1919 9.89977C14.809 10.128 15.1484 10.2677 15.2636 10.3018C15.625 10.4285 15.9289 10.4837 16.1676 10.4837C16.3487 10.4837 16.6044 10.4285 16.8947 10.344C17.0581 10.2888 17.3662 10.1913 17.8072 10.0102C18.244 9.85754 18.5877 9.72678 18.8611 9.62933C19.2801 9.51076 19.6856 9.40112 20.047 9.3459C20.4755 9.28109 20.9104 9.26392 21.343 9.29474C22.0926 9.34175 22.831 9.49416 23.5345 9.74709C24.6849 10.1913 25.6152 10.8849 26.3076 11.8708C26.0149 12.0438 25.7402 12.2435 25.4873 12.4669C24.9368 12.9351 24.4679 13.4848 24.0983 14.0952C23.6152 14.9293 23.3647 15.8689 23.3711 16.8231C23.3889 17.995 23.7021 19.0272 24.3192 19.9197C24.7729 20.5812 25.3625 21.1468 26.0519 21.5821C26.4049 21.8103 26.7088 21.967 27 22.0726C26.8637 22.4787 26.7181 22.8717 26.5463 23.2616C26.1566 24.1357 25.6842 24.9738 25.1352 25.7653C24.6459 26.4467 24.2625 26.9543 23.9713 27.2921C23.5176 27.8078 23.0808 28.2017 22.6398 28.4762C22.1548 28.7848 21.5817 28.9496 20.9993 28.9496C20.6049 28.9642 20.2106 28.9184 19.8312 28.814C19.5053 28.7084 19.1828 28.5939 18.8653 28.4632C18.5353 28.3178 18.195 28.1948 17.847 28.0953C16.9867 27.8833 16.0848 27.8819 15.2238 28.0912C14.8708 28.1887 14.5314 28.3024 14.1962 28.4421C13.7247 28.6321 13.4115 28.7596 13.2303 28.814C12.8689 28.9155 12.4939 28.9789 12.1147 29C11.528 29 10.9812 28.8392 10.4395 28.5135L10.4539 28.5022ZM18.1907 8.51185C17.4238 8.87974 16.6916 9.03648 15.9644 8.98532C15.8502 8.28284 15.9644 7.56411 16.2683 6.77717C16.527 6.11047 16.9093 5.49417 17.3967 4.95802C17.9114 4.39361 18.5359 3.93099 19.2352 3.5961C19.9801 3.22821 20.6903 3.02924 21.3692 3C21.4573 3.73578 21.3692 4.45938 21.0873 5.24145C20.8265 5.93279 20.4449 6.57652 19.959 7.14506C19.463 7.71023 18.8543 8.17465 18.1687 8.51104L18.1907 8.51185Z" fill="#515154"/>
</svg>
